
<svg xmlns="http://www.w3.org/2000/svg" width="24" height="24" fill="none"><path fill="#000" d="M0 0h24v24H0z"/><path d="M16.027 16.8c-.049 0-.074-.023-.074-.069l.03-9.476c0-.037.02-.055.06-.055h2.846c.91 0 1.626.257 2.15.772.534.515.801 1.214.801 2.097 0 .653-.138 1.218-.415 1.696a2.952 2.952 0 0 1-1.083 1.104 2.85 2.85 0 0 1-1.453.386h-1.127v3.476c0 .046-.024.069-.074.069h-1.66Zm1.735-5.214h1.127c.317 0 .588-.138.816-.414.237-.285.356-.652.356-1.103 0-.359-.104-.653-.312-.883-.207-.23-.494-.345-.86-.345l-1.127.014v2.731ZM11.89 16.8c-.04 0-.06-.023-.06-.069V8.869H9.904c-.05 0-.074-.023-.074-.069l.015-1.545c0-.037.02-.055.06-.055h5.634c.05 0 .074.018.074.055V8.8c0 .046-.02.069-.06.069H13.61l.015 7.862c0 .046-.02.069-.06.069H11.89ZM2.7 16.8c-.04 0-.06-.023-.06-.069l.03-9.476c0-.037.02-.055.059-.055h1.809c.04 0 .074.018.104.055l1.349 1.82 1.35-1.82c.029-.037.064-.055.103-.055h1.824c.04 0 .06.018.06.055l.029 9.476c0 .046-.02.069-.06.069H7.623c-.04 0-.06-.023-.06-.069l-.014-7.035-1.557 2.097-1.542-2.096-.015 7.034c0 .046-.02.069-.06.069H2.7Z" fill="#8EFF00"/></svg>