<svg viewBox="0 0 36 36" fill="none" xmlns="http://www.w3.org/2000/svg">
<rect width="36" height="36" rx="18" fill="white"/>
<path d="M18 16C16.374 16 15 17.374 15 19C15 20.626 16.374 22 18 22C19.626 22 21 20.626 21 19C21 17.374 19.626 16 18 16Z" fill="#050505"/>
<path d="M26.0005 11.9995H23.4145L20.7075 9.29251C20.52 9.10496 20.2657 8.99957 20.0005 8.99951H16.0005C15.7353 8.99957 15.481 9.10496 15.2935 9.29251L12.5865 11.9995H10.0005C8.89749 11.9995 8.00049 12.8965 8.00049 13.9995V24.9995C8.00049 26.1025 8.89749 26.9995 10.0005 26.9995H26.0005C27.1035 26.9995 28.0005 26.1025 28.0005 24.9995V13.9995C28.0005 12.8965 27.1035 11.9995 26.0005 11.9995ZM18.0005 23.9995C15.2905 23.9995 13.0005 21.7095 13.0005 18.9995C13.0005 16.2895 15.2905 13.9995 18.0005 13.9995C20.7105 13.9995 23.0005 16.2895 23.0005 18.9995C23.0005 21.7095 20.7105 23.9995 18.0005 23.9995Z" fill="#050505"/>
</svg>
