
<svg xmlns="http://www.w3.org/2000/svg" viewBox="0 0 24 24" fill="none"><path fill-rule="evenodd" clip-rule="evenodd" d="M11.964.09C5.348.09 0 5.59 0 12.396c0 5.44 3.427 10.043 8.18 11.673.595.122.813-.265.813-.59 0-.286-.02-1.264-.02-2.283-3.328.734-4.02-1.466-4.02-1.466-.536-1.426-1.328-1.793-1.328-1.793-1.09-.754.08-.754.08-.754 1.207.082 1.841 1.263 1.841 1.263 1.07 1.874 2.793 1.345 3.487 1.019.099-.795.416-1.345.752-1.65-2.654-.285-5.447-1.345-5.447-6.07 0-1.345.475-2.445 1.228-3.3-.119-.306-.535-1.57.12-3.26 0 0 1.01-.326 3.287 1.263.975-.27 1.981-.407 2.991-.408 1.01 0 2.04.143 2.991.408 2.278-1.59 3.288-1.263 3.288-1.263.654 1.69.238 2.954.12 3.26.772.855 1.227 1.955 1.227 3.3 0 4.725-2.792 5.764-5.467 6.07.436.387.812 1.12.812 2.281 0 1.65-.02 2.975-.02 3.382 0 .326.219.713.813.59 4.754-1.63 8.18-6.233 8.18-11.672C23.929 5.591 18.56.091 11.965.091Z" fill="currentColor"/></svg>