
<svg xmlns="http://www.w3.org/2000/svg" viewBox="0 0 220 40" fill="none"><path d="M197.005 39.518c-.148 0-.222-.093-.222-.279l.111-38.27c0-.186.074-.28.223-.28h6.237c.148 0 .222.094.222.28V14.19L212.319.913c.112-.149.242-.223.39-.223h6.404c.149 0 .186.074.112.223l-9.634 15.397 10.803 22.985c.074.149-.019.223-.278.223h-6.794c-.186 0-.297-.074-.334-.223l-7.518-16.402-1.949 3.069v13.277c0 .186-.074.28-.223.28h-6.293ZM182.353 40.076c-2.042 0-3.898-.502-5.569-1.506a11.545 11.545 0 0 1-3.898-4.129c-.965-1.71-1.448-3.626-1.448-5.746l.056-17.406c0-2.045.464-3.905 1.392-5.578.965-1.711 2.265-3.069 3.898-4.073 1.671-1.041 3.527-1.562 5.569-1.562s3.879.502 5.513 1.506c1.633 1.004 2.933 2.362 3.898 4.073.965 1.673 1.448 3.552 1.448 5.634v2.567c0 .148-.075.223-.223.223h-6.237c-.149 0-.223-.075-.223-.223v-2.567c0-1.227-.408-2.287-1.225-3.18-.78-.892-1.763-1.338-2.951-1.338-1.337 0-2.358.464-3.063 1.394-.705.893-1.058 1.934-1.058 3.124v17.406c0 1.376.39 2.492 1.169 3.347.817.856 1.801 1.284 2.952 1.284 1.188 0 2.171-.465 2.951-1.395.817-.967 1.225-2.046 1.225-3.236V26.13c0-.149.074-.223.223-.223h6.293c.148 0 .222.074.222.223v2.566c0 2.12-.501 4.036-1.503 5.746a11.545 11.545 0 0 1-3.898 4.129c-1.634 1.004-3.471 1.506-5.513 1.506ZM161.25 39.518c-.186 0-.279-.093-.279-.279l.056-38.326c0-.149.074-.223.223-.223h6.237c.148 0 .223.074.223.223l.055 38.326c0 .186-.074.28-.223.28h-6.292ZM136.356 39.518c-.186 0-.279-.093-.279-.279l.112-38.326c0-.149.074-.223.222-.223h10.692c3.416 0 6.107 1.041 8.075 3.124 2.005 2.083 3.007 4.91 3.007 8.48 0 2.64-.52 4.927-1.559 6.861-1.04 1.934-2.395 3.422-4.065 4.463a10.124 10.124 0 0 1-5.458 1.563h-4.232v14.058c0 .186-.093.28-.278.28h-6.237Zm6.515-21.088h4.232c1.188 0 2.209-.558 3.063-1.673.891-1.153 1.337-2.641 1.337-4.464 0-1.45-.39-2.64-1.17-3.57-.779-.93-1.856-1.395-3.23-1.395l-4.232.056V18.43ZM111.027 39.518c-.186 0-.278-.093-.278-.279L110.86.913c0-.149.074-.223.223-.223h10.692c3.415 0 6.107 1.041 8.074 3.124 2.005 2.083 3.007 4.91 3.007 8.48 0 2.64-.519 4.927-1.559 6.861-1.039 1.934-2.394 3.422-4.065 4.463a10.123 10.123 0 0 1-5.457 1.563h-4.233v14.058c0 .186-.092.28-.278.28h-6.237Zm6.515-21.088h4.233c1.188 0 2.209-.558 3.062-1.673.891-1.153 1.337-2.641 1.337-4.464 0-1.45-.39-2.64-1.17-3.57-.779-.93-1.856-1.395-3.229-1.395l-4.233.056V18.43ZM99.892 39.518c-.186 0-.279-.093-.279-.279L99.67.913c0-.149.074-.223.223-.223h6.237c.148 0 .222.074.222.223l.056 38.326c0 .186-.074.28-.223.28h-6.292ZM73.528 39.518c-.148 0-.223-.093-.223-.279L73.417.913c0-.149.074-.223.223-.223h11.248c2.005 0 3.843.502 5.513 1.506a10.944 10.944 0 0 1 4.066 3.96c1.002 1.637 1.503 3.497 1.503 5.58 0 1.376-.204 2.622-.612 3.737-.409 1.079-.891 2.009-1.448 2.79-.557.744-1.058 1.302-1.504 1.673 2.005 2.232 3.007 4.854 3.007 7.867l.056 11.436c0 .186-.093.28-.278.28h-6.293c-.149 0-.223-.057-.223-.168V27.803c0-1.34-.483-2.492-1.448-3.46-.928-1.003-2.079-1.506-3.452-1.506h-3.676l-.055 16.402c0 .186-.075.28-.223.28h-6.293ZM80.1 16.143h4.79c1.15 0 2.171-.428 3.062-1.283.891-.856 1.337-1.897 1.337-3.124 0-1.19-.446-2.213-1.337-3.069-.854-.855-1.875-1.283-3.063-1.283H80.1v8.759ZM57.135 39.518c-.149 0-.223-.093-.223-.279V7.44h-7.24c-.185 0-.278-.093-.278-.279L49.45.913c0-.149.074-.223.222-.223h21.162c.185 0 .278.074.278.223V7.16c0 .186-.074.279-.223.279h-7.295l.056 31.8c0 .185-.074.278-.223.278h-6.292ZM34.95 39.518c-.11 0-.166-.074-.166-.223l.055-15.844L27.377.913c-.037-.149.019-.223.167-.223h6.182c.185 0 .297.074.334.223l4.12 15.007L42.358.913c.037-.149.13-.223.279-.223h6.236c.149 0 .205.074.167.223l-7.517 22.315.056 16.067c0 .149-.075.223-.223.223H34.95ZM.641 39.518c-.148 0-.222-.093-.222-.279L.53.913C.53.764.604.69.753.69h6.794c.148 0 .278.074.39.223l5.067 7.364L18.072.913c.11-.149.24-.223.39-.223h6.849c.148 0 .223.074.223.223l.11 38.326c0 .186-.073.28-.222.28H19.13c-.148 0-.222-.094-.222-.28l-.056-28.452-5.847 8.48-5.791-8.48-.056 28.452c0 .186-.074.28-.223.28H.641Z" fill="currentColor"/></svg>