<svg width="20" height="20" viewBox="0 0 20 20" fill="none" xmlns="http://www.w3.org/2000/svg">
<path d="M11.6035 4.22498L2.72028 13.1081C2.45138 13.3771 2.31692 13.5115 2.20139 13.6604C2.09877 13.7926 2.0074 13.9332 1.92823 14.0807C1.89132 14.1495 1.85799 14.2202 1.8219 14.3047C1.77144 14.4228 1.74621 14.4819 1.71007 14.5877C1.68268 14.6679 1.64721 14.7914 1.6279 14.8739C1.60244 14.9828 1.58675 15.0829 1.55537 15.2832L1 18.8284L4.54523 18.2731C4.74551 18.2417 4.84566 18.226 4.9545 18.2005C5.03699 18.1812 5.16057 18.1457 5.24075 18.1184C5.34653 18.0822 5.4056 18.057 5.52374 18.0065C5.60823 17.9704 5.67895 17.9371 5.74772 17.9002C5.8952 17.821 6.0358 17.7297 6.16804 17.627C6.31692 17.5115 6.45137 17.3771 6.72028 17.1082L15.5 8.32843M11.6035 4.22498L14 1.82843C15.1046 0.723857 16.8955 0.723859 18 1.82843C19.1046 2.933 19.1046 4.72386 18 5.82843L15.5 8.32843M11.6035 4.22498L15.5 8.32843" stroke="white" stroke-width="1.5" stroke-linecap="round" stroke-linejoin="round"/>
</svg>
