<svg width="22" height="22" viewBox="0 0 22 22" fill="none" xmlns="http://www.w3.org/2000/svg">
<path fill-rule="evenodd" clip-rule="evenodd" d="M12.5366 3.95658C12.1447 2.34781 9.85528 2.34781 9.46339 3.95658C9.40488 4.19833 9.29012 4.42284 9.12845 4.61186C8.96678 4.80088 8.76277 4.94905 8.53301 5.04433C8.30326 5.13961 8.05425 5.17929 7.80626 5.16016C7.55827 5.14103 7.3183 5.06361 7.10588 4.93422C5.69096 4.07208 4.07185 5.69117 4.934 7.10607C5.49089 8.01977 4.99691 9.21191 3.95737 9.46457C2.34754 9.85542 2.34754 12.1459 3.95737 12.5357C4.19919 12.5943 4.42375 12.7091 4.61277 12.8709C4.80178 13.0327 4.94992 13.2369 5.04511 13.4667C5.1403 13.6966 5.17985 13.9457 5.16054 14.1938C5.14123 14.4418 5.06361 14.6818 4.934 14.8942C4.07185 16.3091 5.69096 17.9282 7.10588 17.066C7.31826 16.9364 7.55825 16.8588 7.80631 16.8395C8.05437 16.8202 8.30348 16.8597 8.53336 16.9549C8.76324 17.0501 8.96739 17.1982 9.12918 17.3873C9.29097 17.5763 9.40584 17.8008 9.46442 18.0426C9.85528 19.6525 12.1458 19.6525 12.5356 18.0426C12.5944 17.801 12.7093 17.5766 12.8712 17.3877C13.033 17.1988 13.2371 17.0507 13.4669 16.9556C13.6967 16.8604 13.9457 16.8208 14.1937 16.84C14.4417 16.8592 14.6817 16.9367 14.8941 17.066C16.309 17.9282 17.9282 16.3091 17.066 14.8942C16.9366 14.6818 16.8592 14.4418 16.84 14.1938C16.8208 13.9458 16.8604 13.6968 16.9556 13.467C17.0507 13.2372 17.1988 13.0331 17.3876 12.8713C17.5765 12.7094 17.8009 12.5945 18.0426 12.5357C19.6525 12.1448 19.6525 9.85439 18.0426 9.46457C17.8008 9.40599 17.5763 9.29113 17.3872 9.12934C17.1982 8.96755 17.0501 8.7634 16.9549 8.53353C16.8597 8.30365 16.8202 8.05454 16.8395 7.80649C16.8588 7.55843 16.9364 7.31845 17.066 7.10607C17.9282 5.69117 16.309 4.07208 14.8941 4.93422C14.6817 5.06383 14.4417 5.14145 14.1937 5.16076C13.9456 5.18007 13.6965 5.14052 13.4666 5.04533C13.2368 4.95014 13.0326 4.80201 12.8708 4.61299C12.709 4.42398 12.5942 4.19942 12.5356 3.95761L12.5366 3.95658Z" stroke="white" stroke-width="1.5"/>
<path d="M12.8333 11C12.8333 12.0125 12.0125 12.8333 11 12.8333C9.98748 12.8333 9.16667 12.0125 9.16667 11C9.16667 9.98748 9.98748 9.16667 11 9.16667C12.0125 9.16667 12.8333 9.98748 12.8333 11Z" stroke="white" stroke-width="1.5"/>
</svg>
